<svg xmlns="http://www.w3.org/2000/svg" width="200" height="200" class="icon" p-id="6501" t="1609252538447" version="1.1" viewBox="0 0 1024 1024"><path fill="#ED4201" d="M97.9 389.3c7.1 4.2 13.1 10.1 19.8 15.1 9.5 7.1 19.1 14 28.4 20.9 14.3-31.5 27.9-61.6 42.2-92.9-22.1-3.9-44.7-8.2-67.5-11.5-3-0.4-8.2 3.7-9.9 7-6.9 13.3-12.8 27-19 40.6-3.9 8.6-3.1 15.4 6 20.8zM214.7 291.8c26.4-22.8 51.7-44.6 77.9-67.3-18.8-13-37.8-26.5-57.4-39.2-2.6-1.7-9.4-0.5-12.2 1.8-13.1 10.7-25.8 22.1-38.1 33.8-2.1 2-3.2 7.3-2 9.8 10.2 20.4 21 40.5 31.8 61.1zM339.4 201.9c28.9-8.4 57.8-16.9 86.8-25.1 7.4-2.1 6.4-5.5 3.4-10.6-10-17.1-19.3-34.6-30-51.2-2.2-3.5-9.5-6.6-13.5-5.7-15.6 3.5-30.9 8.4-46.1 13.4-2.8 0.9-6.3 5.1-6.4 7.8-0.5 23.4-0.3 46.9-0.3 70.4 4.7 0.8 5.5 1.2 6.1 1zM136.1 475.5c-2.9-0.6-4.1-1.2-5.1-0.9-19.5 5-39 9.9-58.3 15.7-2.9 0.9-6.1 6.6-6.2 10.1-0.3 17.3 0 34.6 1.2 51.8 0.3 3.6 4.7 9 8.1 9.9 19.7 5.2 39.8 9.3 60.2 13.9V475.5zM586 174.6c-1-13.8-1.3-27.7-3.6-41.2-5-30 2.5-25.5-28.9-30.8-3.7-0.6-7.4-1.3-11.1-1.9-26.4-4-26.6-4-37.4 20-7.3 16.2-13.7 32.7-20.4 48.7 34.3 4.9 67.2 9.5 101.5 14.4-0.1-2.8 0.1-6.1-0.1-9.2zM741.9 194c0.8-2.4-1.9-7.3-4.4-9.1-13.4-9.8-27-19.3-41-28-3-1.8-9.6-1.8-12.1 0.3-18 15.4-35.3 31.5-52.6 47.1 29.2 19.9 56.9 38.9 85.6 58.5 8.3-22.7 16.8-45.6 24.5-68.8zM504.2 862.8c8.1 17.4 16.2 35.5 25.2 53 1.5 2.9 7.5 5.6 10.9 5.1 17.9-2.9 35.8-6.3 53.4-10.8 3.6-0.9 7.8-7 8.3-11.2 1.6-12.6 1.7-25.4 2.2-38.2 0.2-6.5 0-13 0-19.2-34.2 7.3-66.3 14.1-100 21.3zM749.5 798.9c-5.6-13.5-11.2-27-16.7-40.3-28.6 21.9-55.7 42.7-83.5 64 16.4 13.7 31.6 26.9 47.6 39.2 2.6 2 9.6 1.3 12.9-0.8 11-6.8 21.4-14.6 31.7-22.4 18.1-13.5 18-13.6 9.6-34.3-0.7-1.6-0.9-3.6-1.6-5.4zM541.3 749.2c-56.9-1.8-109.9-17.9-154.9-53-71.7-56-97.9-132.6-85.1-220.5 11.1-76.7 57-132.3 125.6-165.9 55-27 114.2-32.2 172.7-9.9 45.6 17.4 70.5 53.1 52.4 106.5-11.5 33.8-35.6 57.5-64.7 76.4-34.2 22.3-70.8 37.5-112.7 34.6-40.8-2.9-59.4-33.1-43.8-71 3-7.3 7.4-14 11.2-20.9-21.1 19.5-38.3 42-44 71.3-4.7 24.7 9.3 50 32.2 58.7 21.9 8.4 44.6 11.5 67.8 8.7 75.2-9.1 140.2-40 194.6-92.8 60.1-58.3 58.9-152.2-4.2-204.7-55-45.7-118.8-71.6-190.8-73.4-81.4-2.1-156.2 18.5-220.7 70.2-64 51.5-104.5 117.8-118.6 198.8-9.9 56.8-4.6 112.8 15.9 167.3 26 69.1 68 125 130.9 164.3 87.2 54.5 180.7 64.9 278.2 36.3 87-25.5 147.3-84.3 190.9-162.1 1.4-2.5 1.8-5.6 2.7-8.4-13.2 9.1-23.9 19.9-35.9 28.8-59.3 43.8-126.4 63-199.7 60.7zM447.1 859.9c-14.5-1.7-29-4-43.2-7.2-15.2-3.4-30.1-8.2-47.3-12.9 0 21.4-0.2 41.1 0.3 60.8 0.1 2.6 3.5 6.8 6.2 7.5 18.1 4.8 36.3 9.1 54.6 12.7 3 0.6 8.5-1.6 10-4.2 9-15.1 17.1-30.6 25.5-46 3.6-6.7 2.2-9.7-6.1-10.7zM200.2 809.6c-1.1 2.5 0.7 7.9 2.9 9.8 14.3 12.2 29.1 24 44 35.5 2.3 1.8 7.3 3 9.1 1.7 17.3-12.4 34.1-25.3 51-38-27.5-22.3-53.4-43.3-81.2-65.8-8.7 18.9-17.6 37.7-25.8 56.8zM100.6 665.3c-2.1 1.9-2.8 8-1.5 10.8 7.6 16.1 15.8 32 24.5 47.6 1.6 2.9 6.6 6.3 9.4 5.8 20.7-3.7 41.3-8.3 61.1-12.4L148 625.2c-15.9 13.3-31.9 26.4-47.4 40.1z" p-id="6502"/><path fill="#035DB6" d="M928.2 349.2c-14.5-33.7-43.7-48.8-75.4-58.7-19.9-6.2-40.6-8.9-61.5-9.5-10.3-0.3-20.6-0.2-31 0.3-9.2 0.4-18.6 1.4-27.9 3.7 5 1.2 40.3 11 55.7 19 1.1 0.6 2.1 1.1 3.2 1.7 20.3 11.5 32.8 28.9 33.6 53.7 1 31.8-13.1 57.9-31.7 82-0.6 0.8-1.3 1.6-1.9 2.3-18.5 23.4-40.5 43.1-64.6 60.7-46.3 33.7-97.2 57.9-152.2 72.4-41.7 11-84.2 14.2-127.1 5-45.3-9.7-76.5-49.4-58.1-98 3.1-8.2 6.2-16.5 9.3-24.7-15.3 19.6-26.8 40.2-29.6 65.5-3.6 33.5 10.4 58.6 35.8 77.3 31.7 23.4 69.7 29.2 107.7 30.5 24.6 0.8 49.5-3.4 74.1-5.9 42.8-4.4 83.5-17 123-33.1 28.2-11.5 55.7-24.5 81.7-40 16.6-9.9 32.5-20.8 47.7-33.1 34-27.7 66.3-57.2 84.1-98.6 10.1-23.4 16-47.2 5.1-72.5z" p-id="6503"/></svg>